<svg xmlns="http://www.w3.org/2000/svg" fill="none" width="115" height="48"><path id="Left-Eye" d="M329.87,258.26c.76,3.24.66,5.04,2.32,6.66,1.27,1.25,6.08,1.29,8.32,2.17,30.03,11.81,21.14,54.43-10.93,50.9-9.76-1.08-20.14-10.07-22.14-19.81-.9-4.4,1.89-8.74-.92-12.07-1.2-1.42-3.11-2.43-5.33-3.59-3.64-1.92-6.14-2.42-6.07-2.81.17-.95,14.28,2.21,15.77-1.21.52-1.2-.84-2.44-2.73-5.9-2.21-4.04-3.29-7.72-3.85-10.22,2.53,3.36,5.24,5.23,6.96,6.22,2.18,1.25,4.1,2.36,6.72,2.14,2.19-.18,5.07-1.31,6.18-3.66.41-.86.35-1.41.43-3.82.15-4.08.4-4.51.44-6.67.15-6.58-1.99-10.92-1.48-11.11.6-.22,4.57,5.31,6.32,12.78Z"/>

</svg>
